<?xml version="1.0" standalone="no"?>
<!DOCTYPE svg PUBLIC "-//W3C//DTD SVG 20010904//EN"
 "http://www.w3.org/TR/2001/REC-SVG-20010904/DTD/svg10.dtd">
<svg version="1.0" xmlns="http://www.w3.org/2000/svg"
 width="490.000000pt" height="490.000000pt" viewBox="0 0 490.000000 490.000000"
 preserveAspectRatio="xMidYMid meet">
<metadata>
Created by potrace 1.11, written by Peter Selinger 2001-2013
</metadata>
<g transform="translate(0.000000,490.000000) scale(0.100000,-0.100000)"
fill="#000000" stroke="none">
<path d="M942 4829 c-147 -17 -338 -117 -476 -249 -97 -93 -153 -170 -211
-293 -57 -120 -82 -217 -90 -354 -8 -126 3 -223 40 -343 44 -141 51 -117 -84
-285 l-121 -150 0 -63 c0 -65 24 -182 135 -662 131 -568 175 -760 210 -920 20
-91 44 -199 54 -240 11 -41 29 -118 41 -170 12 -52 27 -101 34 -109 11 -15
301 -158 781 -386 154 -73 379 -181 500 -240 509 -247 661 -315 699 -315 27 0
99 29 259 106 122 59 328 157 457 219 246 117 275 131 770 370 168 81 346 167
396 191 105 50 101 44 139 214 14 63 46 205 71 315 24 110 54 236 64 280 11
44 63 267 114 495 52 228 111 487 131 575 20 88 39 201 42 250 l5 90 -112 140
c-62 77 -117 146 -122 152 -7 9 0 39 20 95 43 120 55 213 50 380 -4 132 -8
151 -42 252 -104 310 -312 518 -631 632 l-80 29 -1485 1 c-817 1 -1518 -2
-1558 -7z m291 -340 c40 -6 97 -20 127 -31 59 -22 160 -78 160 -89 0 -4 -21
-19 -47 -35 -91 -52 -238 -169 -333 -264 -164 -163 -308 -375 -391 -574 l-33
-79 -44 49 c-51 58 -116 185 -137 269 -33 129 -9 302 57 428 47 88 174 213
263 259 74 38 128 56 210 68 74 11 89 11 168 -1z m2644 -4 c186 -35 358 -165
442 -335 89 -182 91 -365 5 -545 -32 -67 -117 -185 -133 -185 -5 0 -16 21 -26
48 -33 87 -103 218 -173 323 -135 201 -307 373 -510 510 l-102 69 42 26 c65
41 139 72 215 88 89 19 144 19 240 1z m-1128 -180 c148 -33 249 -67 370 -126
463 -223 767 -609 877 -1119 15 -68 19 -127 19 -300 -1 -196 -3 -225 -27 -325
-138 -583 -548 -1014 -1123 -1180 -157 -45 -262 -58 -440 -52 -183 7 -298 27
-476 87 -546 181 -939 635 -1045 1205 -28 148 -26 432 4 571 143 666 674 1162
1342 1254 101 14 412 5 499 -15z"/>
<path d="M1204 3247 c-28 -26 -37 -42 -41 -78 -7 -59 17 -110 60 -134 18 -9
160 -56 317 -104 l285 -88 57 -219 c31 -120 64 -255 73 -299 19 -92 33 -118
78 -145 30 -19 53 -20 415 -20 334 0 388 2 418 16 19 9 40 26 46 38 7 11 46
156 87 321 70 275 78 301 101 312 14 6 138 46 275 88 278 84 323 103 348 144
21 36 22 102 2 141 -33 64 -110 75 -240 35 -44 -14 -190 -60 -325 -101 -268
-83 -294 -93 -311 -127 -7 -12 -45 -150 -84 -307 l-71 -285 -242 -3 -241 -2
-10 37 c-6 21 -39 154 -74 296 -41 164 -72 266 -83 279 -24 26 -14 23 -390
139 -367 113 -394 117 -450 66z"/>
</g>
</svg>
